# xmcd CD database file
#
# Track frame offsets:
#	150
#	17377
#	35960
#	54725
#	71852
#	91665
#	109965
#	129815
#	149927
#	171442
#	194152
#	212235
#	226152
#	243472
#	261627
#	281932
#	299047
#	316187
#	335310
#
# Disc length: 4712 seconds
#
# Revision: 6
# Processed by: cddbd v1.5.2PL0 Copyright (c) Steve Scherf et al.
# Submitted via: CDex 1.79
#
DISCID=3e126613
DTITLE=Various Artist - Steppin' Country - 19 Great Line Dancing Songs
DYEAR=1998
DGENRE=Country
TTITLE0=Collin Raye - I Want You Bad (And That Ain't Good)
TTITLE1=Dolly Parton - Romeo
TTITLE2=Ricky Van Shelton - Heartache As Big As Texas
TTITLE3=Joe Diffie - Honky Tonk Attitude
TTITLE4=Mary Chapin Carpenter - Down At The Twist And Shout
TTITLE5=Ricky Van Shelton - Wild Man
TTITLE6=The Gibson/Miller Band - Texas Tattoo
TTITLE7=Mary Chapin Carpenter - I Feel Lucky
TTITLE8=Larry Boone - Get In Line
TTITLE9=Joe Diffie - Third Rock From The Sun
TTITLE10=Wade Hayes - Old Enough To Know Better
TTITLE11=Collin Raye - That's My Story
TTITLE12=Doug Stone - Born In The Dark
TTITLE13=Ken Mellons - Workin' For The Weekend
TTITLE14=The Gibson Miller Band - Mammas Don't Let Your Babies Grow Up To Be Cowboys
TTITLE15=Rick Trevino - Bobbie Ann Manson
TTITLE16=Joe Diffie - Prop Me Up Beside The Jukebox (If I Die)
TTITLE17=Ron Walace - Cotton County Queen
TTITLE18=Wade Hayes - Don't Stop
EXTD=Re-Edited by Starmaster Berlin (c) 2007 YEAR: 1998
EXTT0=
EXTT1=
EXTT2=
EXTT3=
EXTT4=
EXTT5=
EXTT6=
EXTT7=
EXTT8=
EXTT9=
EXTT10=
EXTT11=
EXTT12=
EXTT13=
EXTT14=
EXTT15=
EXTT16=
EXTT17=
EXTT18=
PLAYORDER=
